<svg fill="#000000" xmlns="http://www.w3.org/2000/svg"  viewBox="0 0 50 50" width="500px" height="500px"><path d="M 25 4.03125 C 23.464844 4.03125 21.929688 4.613281 20.757813 5.785156 L 3.789063 22.757813 C 1.445313 25.101563 1.445313 28.898438 3.789063 31.242188 L 15.785156 43.242188 C 16.910156 44.367188 18.4375 45 20.03125 45 L 29.96875 45 C 31.5625 45 33.085938 44.367188 34.214844 43.242188 L 46.214844 31.242188 C 48.554688 28.898438 48.554688 25.101563 46.214844 22.757813 L 29.242188 5.789063 C 28.070313 4.613281 26.535156 4.03125 25 4.03125 Z M 25 6.03125 C 26.066406 6.03125 27.074219 6.445313 27.828125 7.203125 L 44.796875 24.171875 C 45.554688 24.929688 45.96875 25.933594 45.96875 27 C 45.96875 28.066406 45.554688 29.074219 44.796875 29.828125 L 32.796875 41.828125 C 32.042969 42.585938 31.039063 43 29.96875 43 L 20.03125 43 C 18.960938 43 17.957031 42.585938 17.203125 41.828125 L 5.203125 29.828125 C 4.445313 29.074219 4.03125 28.066406 4.03125 27 C 4.03125 25.933594 4.445313 24.925781 5.203125 24.171875 L 22.171875 7.203125 C 22.925781 6.445313 23.933594 6.03125 25 6.03125 Z M 24.292969 11.574219 C 23.777344 11.570313 23.265625 11.765625 22.878906 12.152344 L 10.152344 24.878906 C 9.378906 25.652344 9.378906 26.933594 10.152344 27.707031 L 11.101563 28.65625 C 11.476563 29.035156 11.988281 29.242188 12.515625 29.242188 L 14.859375 29.242188 C 15.386719 29.242188 15.898438 29.03125 16.269531 28.65625 L 27.828125 17.101563 L 27.828125 17.097656 C 28.601563 16.328125 28.601563 15.042969 27.828125 14.269531 L 25.707031 12.152344 C 25.320313 11.765625 24.804688 11.574219 24.292969 11.574219 Z M 24.292969 13.5625 L 26.414063 15.6875 L 14.859375 27.242188 L 12.515625 27.242188 L 11.5625 26.296875 L 11.5625 26.292969 Z M 24.292969 22.886719 C 23.777344 22.882813 23.261719 23.078125 22.875 23.464844 L 15.808594 30.535156 C 15.035156 31.308594 15.035156 32.589844 15.808594 33.363281 L 16.757813 34.3125 L 16.757813 34.316406 C 17.132813 34.6875 17.640625 34.898438 18.171875 34.898438 L 20.515625 34.898438 C 21.042969 34.898438 21.554688 34.6875 21.925781 34.3125 L 27.828125 28.414063 C 28.601563 27.640625 28.597656 26.359375 27.828125 25.585938 L 25.707031 23.464844 C 25.320313 23.078125 24.808594 22.886719 24.292969 22.886719 Z M 24.292969 24.878906 L 26.410156 27 L 20.515625 32.898438 L 18.171875 32.898438 L 17.21875 31.953125 Z M 25 33.492188 C 24.484375 33.492188 23.96875 33.6875 23.582031 34.074219 L 21.464844 36.191406 C 20.691406 36.964844 20.691406 38.25 21.464844 39.019531 L 22.414063 39.96875 C 22.789063 40.347656 23.300781 40.558594 23.828125 40.558594 L 26.171875 40.558594 C 26.699219 40.558594 27.210938 40.34375 27.585938 39.96875 L 28.535156 39.019531 C 29.308594 38.25 29.308594 36.964844 28.53125 36.191406 L 26.414063 34.074219 C 26.027344 33.683594 25.515625 33.492188 25 33.492188 Z M 25 35.484375 L 27.121094 37.609375 L 26.171875 38.558594 L 23.828125 38.558594 L 22.878906 37.609375 Z"/></svg>