<svg width="195" height="190" viewBox="0 0 195 190" fill="none" xmlns="http://www.w3.org/2000/svg">
<path d="M178 57.555C163.721 25.9747 131.937 4 95.0191 4C44.7506 4 4 44.7421 4 95C4 145.258 44.7506 186 95.0191 186C129.156 186 158.904 167.211 174.481 139.411" stroke="black" stroke-width="8"/>
<path d="M193.182 98.182C194.939 96.4246 194.939 93.5754 193.182 91.818L164.544 63.1802C162.787 61.4228 159.938 61.4228 158.18 63.1802C156.423 64.9376 156.423 67.7868 158.18 69.5442L183.636 95L158.18 120.456C156.423 122.213 156.423 125.062 158.18 126.82C159.938 128.577 162.787 128.577 164.544 126.82L193.182 98.182ZM84 99.5H190V90.5H84V99.5Z" fill="black"/>
</svg>
