<svg width="170" height="78" viewBox="0 0 170 78" fill="none" xmlns="http://www.w3.org/2000/svg">
<path d="M8.64844 29.6406L9.64525 29.5609L9.57163 28.6406H8.64844V29.6406ZM8.83594 31.9844L7.83912 32.0641L8.04187 34.5985L9.61998 32.6051L8.83594 31.9844ZM20.0859 32.5938L19.1771 33.0108L19.9429 34.6796L20.9294 33.131L20.0859 32.5938ZM33.1172 38.3828H34.1172V38.3739L34.117 38.365L33.1172 38.3828ZM33.1172 55V56H34.1172V55H33.1172ZM26.4844 55H25.4844V56H26.4844V55ZM21.0469 37L20.1191 36.627L20.0354 36.8349L20.0486 37.0587L21.0469 37ZM21.0938 37.7969H22.0938V37.7675L22.092 37.7382L21.0938 37.7969ZM21.0938 55V56H22.0938V55H21.0938ZM14.4609 55H13.4609V56H14.4609V55ZM13.875 35.7109L13.0157 36.2225L13.0212 36.2315L13.875 35.7109ZM9.07031 36.5781L8.19199 36.1001L8.07031 36.3236V36.5781H9.07031ZM9.07031 55V56H10.0703V55H9.07031ZM2.4375 55H1.4375V56H2.4375V55ZM2.4375 29.6406V28.6406H1.4375V29.6406H2.4375ZM7.65162 29.7204L7.83912 32.0641L9.83275 31.9046L9.64525 29.5609L7.65162 29.7204ZM9.61998 32.6051C10.9105 30.975 12.58 30.1719 14.7188 30.1719V28.1719C11.9825 28.1719 9.73016 29.2438 8.05189 31.3637L9.61998 32.6051ZM14.7188 30.1719C15.8311 30.1719 16.7162 30.421 17.4214 30.8706C18.126 31.3198 18.7189 32.0125 19.1771 33.0108L20.9948 32.1767C20.4061 30.8937 19.581 29.8755 18.4966 29.1841C17.4127 28.4931 16.1376 28.1719 14.7188 28.1719V30.1719ZM20.9294 33.131C22.2003 31.1357 23.9538 30.1719 26.2969 30.1719V28.1719C23.265 28.1719 20.8778 29.4893 19.2425 32.0565L20.9294 33.131ZM26.2969 30.1719C28.257 30.1719 29.6105 30.8327 30.5264 32.0697C31.4845 33.3636 32.0643 35.4222 32.1173 38.4006L34.117 38.365C34.0607 35.2028 33.4491 32.6559 32.1337 30.8795C30.7763 29.0462 28.7743 28.1719 26.2969 28.1719V30.1719ZM32.1172 38.3828V55H34.1172V38.3828H32.1172ZM33.1172 54H26.4844V56H33.1172V54ZM27.4844 55V38.8047H25.4844V55H27.4844ZM27.4844 38.8047C27.4844 37.2984 27.2863 36.0004 26.7134 35.1191L25.0366 36.2091C25.2762 36.5778 25.4844 37.3735 25.4844 38.8047H27.4844ZM26.7134 35.1191C26.0682 34.1264 25.0058 33.7266 23.8125 33.7266V35.7266C24.5567 35.7266 24.8693 35.9517 25.0366 36.2091L26.7134 35.1191ZM23.8125 33.7266C22.9723 33.7266 22.2067 33.991 21.5603 34.5224C20.9308 35.0399 20.4643 35.7683 20.1191 36.627L21.9747 37.373C22.2388 36.7161 22.5379 36.3078 22.8303 36.0674C23.1058 35.841 23.4183 35.7266 23.8125 35.7266V33.7266ZM20.0486 37.0587L20.0955 37.8556L22.092 37.7382L22.0451 36.9413L20.0486 37.0587ZM20.0938 37.7969V55H22.0938V37.7969H20.0938ZM21.0938 54H14.4609V56H21.0938V54ZM15.4609 55V38.8516H13.4609V55H15.4609ZM15.4609 38.8516C15.4609 37.358 15.2691 36.0765 14.7288 35.1903L13.0212 36.2315C13.2621 36.6267 13.4609 37.4389 13.4609 38.8516H15.4609ZM14.7343 35.1995C14.1078 34.1469 13.0173 33.7266 11.7891 33.7266V35.7266C12.5608 35.7266 12.861 35.9625 13.0157 36.2224L14.7343 35.1995ZM11.7891 33.7266C10.1915 33.7266 8.99086 34.6324 8.19199 36.1001L9.94863 37.0562C10.4935 36.0551 11.1054 35.7266 11.7891 35.7266V33.7266ZM8.07031 36.5781V55H10.0703V36.5781H8.07031ZM9.07031 54H2.4375V56H9.07031V54ZM3.4375 55V29.6406H1.4375V55H3.4375ZM2.4375 30.6406H8.64844V28.6406H2.4375V30.6406ZM45 55V56H46V55H45ZM38.3438 55H37.3438V56H38.3438V55ZM38.3438 29.6406V28.6406H37.3438V29.6406H38.3438ZM45 29.6406H46V28.6406H45V29.6406ZM44.2734 25.6094L43.558 24.9106L43.5497 24.9193L44.2734 25.6094ZM39 25.6094L38.2762 26.2995L38.2846 26.3081L39 25.6094ZM45 54H38.3438V56H45V54ZM39.3438 55V29.6406H37.3438V55H39.3438ZM38.3438 30.6406H45V28.6406H38.3438V30.6406ZM44 29.6406V55H46V29.6406H44ZM39.0391 23.0781C39.0391 22.2798 39.2835 21.701 39.7305 21.254L38.3163 19.8398C37.4509 20.7052 37.0391 21.814 37.0391 23.0781H39.0391ZM39.7305 21.254C40.1661 20.8185 40.7689 20.5625 41.6484 20.5625V18.5625C40.3404 18.5625 39.1933 18.9628 38.3163 19.8398L39.7305 21.254ZM41.6484 20.5625C42.5279 20.5625 43.1308 20.8185 43.5663 21.254L44.9805 19.8398C44.1036 18.9628 42.9564 18.5625 41.6484 18.5625V20.5625ZM43.5663 21.254C44.0134 21.701 44.2578 22.2798 44.2578 23.0781H46.2578C46.2578 21.814 45.846 20.7052 44.9805 19.8398L43.5663 21.254ZM44.2578 23.0781C44.2578 23.856 44.0161 24.4417 43.5581 24.9106L44.9888 26.3081C45.8432 25.4333 46.2578 24.3315 46.2578 23.0781H44.2578ZM43.5497 24.9193C43.1342 25.3551 42.5419 25.6172 41.6484 25.6172V27.6172C42.9737 27.6172 44.1315 27.2074 44.9972 26.2995L43.5497 24.9193ZM41.6484 25.6172C40.7557 25.6172 40.1496 25.3552 39.7154 24.9106L38.2846 26.3081C39.1629 27.2073 40.3225 27.6172 41.6484 27.6172V25.6172ZM39.7237 24.9193C39.2779 24.4517 39.0391 23.8632 39.0391 23.0781H37.0391C37.0391 24.3243 37.4409 25.4233 38.2763 26.2995L39.7237 24.9193Z" fill="black"/>
<path d="M51.9 51.3H53.15C53.8167 51.3 54.3 51.1667 54.6 50.9C54.9 50.6 55.05 50.1167 55.05 49.45V34.65H51.15V31H55.05V29.7C55.05 27.0333 55.8 24.95 57.3 23.45C58.8333 21.9167 61.05 21.15 63.95 21.15C67.3833 21.15 70.1167 22.0333 72.15 23.8V27.65H67.75V25.75C66.9167 25.0833 65.7667 24.75 64.3 24.75C63 24.75 62.0167 25.1333 61.35 25.9C60.6833 26.6667 60.35 27.7667 60.35 29.2V31H67.55V34.65H60.35V49.45C60.35 50.1167 60.4833 50.6 60.75 50.9C61.0167 51.1667 61.4833 51.3 62.15 51.3H63.35V55H51.9V51.3ZM81.0887 55.75C77.022 55.75 73.9553 54.6333 71.8887 52.4C69.822 50.1667 68.7887 47.05 68.7887 43.05C68.7887 39.0167 69.8053 35.8833 71.8387 33.65C73.9053 31.3833 76.9887 30.25 81.0887 30.25C85.1887 30.25 88.2553 31.3833 90.2887 33.65C92.3553 35.8833 93.3887 39.0167 93.3887 43.05C93.3887 47.05 92.3553 50.1667 90.2887 52.4C88.222 54.6333 85.1553 55.75 81.0887 55.75ZM81.0887 52C83.4887 52 85.272 51.2667 86.4387 49.8C87.6053 48.3333 88.1887 46.0833 88.1887 43.05C88.1887 39.9833 87.6053 37.7167 86.4387 36.25C85.272 34.75 83.4887 34 81.0887 34C78.6887 34 76.9053 34.75 75.7387 36.25C74.6053 37.7167 74.0387 39.9833 74.0387 43.05C74.0387 46.0833 74.6053 48.3333 75.7387 49.8C76.9053 51.2667 78.6887 52 81.0887 52ZM96.6695 51.3H98.1195C98.7862 51.3 99.2529 51.15 99.5195 50.85C99.8195 50.55 99.9695 50.0667 99.9695 49.4V27.45C99.9695 26.8167 99.8195 26.3667 99.5195 26.1C99.2529 25.8 98.7862 25.65 98.1195 25.65H96.6695V21.9H105.32V49.45C105.32 50.0833 105.47 50.55 105.77 50.85C106.07 51.15 106.536 51.3 107.17 51.3H108.62V55H96.6695V51.3ZM114.066 22.6H119.716V27.2H114.066V22.6ZM110.916 51.3H112.366C113.032 51.3 113.499 51.15 113.766 50.85C114.066 50.55 114.216 50.0667 114.216 49.4V36.55C114.216 35.9167 114.066 35.4667 113.766 35.2C113.499 34.9 113.032 34.75 112.366 34.75H110.916V31H119.566V49.45C119.566 50.0833 119.716 50.55 120.016 50.85C120.316 51.15 120.782 51.3 121.416 51.3H122.866V55H110.916V51.3ZM137.973 55.75C133.907 55.75 130.84 54.6333 128.773 52.4C126.707 50.1667 125.673 47.05 125.673 43.05C125.673 39.0167 126.69 35.8833 128.723 33.65C130.79 31.3833 133.873 30.25 137.973 30.25C142.073 30.25 145.14 31.3833 147.173 33.65C149.24 35.8833 150.273 39.0167 150.273 43.05C150.273 47.05 149.24 50.1667 147.173 52.4C145.107 54.6333 142.04 55.75 137.973 55.75ZM137.973 52C140.373 52 142.157 51.2667 143.323 49.8C144.49 48.3333 145.073 46.0833 145.073 43.05C145.073 39.9833 144.49 37.7167 143.323 36.25C142.157 34.75 140.373 34 137.973 34C135.573 34 133.79 34.75 132.623 36.25C131.49 37.7167 130.923 39.9833 130.923 43.05C130.923 46.0833 131.49 48.3333 132.623 49.8C133.79 51.2667 135.573 52 137.973 52Z" fill="black"/>
<path d="M51.9 51.3V50.3H50.9V51.3H51.9ZM54.6 50.9L55.2644 51.6474L55.2863 51.6279L55.3071 51.6071L54.6 50.9ZM55.05 34.65H56.05V33.65H55.05V34.65ZM51.15 34.65H50.15V35.65H51.15V34.65ZM51.15 31V30H50.15V31H51.15ZM55.05 31V32H56.05V31H55.05ZM57.3 23.45L58.0071 24.1571L58.0071 24.1571L57.3 23.45ZM72.15 23.8H73.15V23.3441L72.8059 23.0451L72.15 23.8ZM72.15 27.65V28.65H73.15V27.65H72.15ZM67.75 27.65H66.75V28.65H67.75V27.65ZM67.75 25.75H68.75V25.2694L68.3747 24.9691L67.75 25.75ZM60.35 31H59.35V32H60.35V31ZM67.55 31H68.55V30H67.55V31ZM67.55 34.65V35.65H68.55V34.65H67.55ZM60.35 34.65V33.65H59.35V34.65H60.35ZM60.75 50.9L60.0026 51.5644L60.0221 51.5863L60.0429 51.6071L60.75 50.9ZM63.35 51.3H64.35V50.3H63.35V51.3ZM63.35 55V56H64.35V55H63.35ZM51.9 55H50.9V56H51.9V55ZM51.9 52.3H53.15V50.3H51.9V52.3ZM53.15 52.3C53.9109 52.3 54.6935 52.1548 55.2644 51.6474L53.9356 50.1526C53.9065 50.1785 53.7225 50.3 53.15 50.3V52.3ZM55.3071 51.6071C55.8778 51.0364 56.05 50.235 56.05 49.45H54.05C54.05 49.9984 53.9222 50.1636 53.8929 50.1929L55.3071 51.6071ZM56.05 49.45V34.65H54.05V49.45H56.05ZM55.05 33.65H51.15V35.65H55.05V33.65ZM52.15 34.65V31H50.15V34.65H52.15ZM51.15 32H55.05V30H51.15V32ZM56.05 31V29.7H54.05V31H56.05ZM56.05 29.7C56.05 27.2267 56.74 25.4242 58.0071 24.1571L56.5929 22.7429C54.86 24.4758 54.05 26.84 54.05 29.7H56.05ZM58.0071 24.1571C59.2964 22.8678 61.2229 22.15 63.95 22.15V20.15C60.8771 20.15 58.3703 20.9655 56.5929 22.7429L58.0071 24.1571ZM63.95 22.15C67.2103 22.15 69.6882 22.9858 71.4941 24.5549L72.8059 23.0451C70.5451 21.0808 67.5563 20.15 63.95 20.15V22.15ZM71.15 23.8V27.65H73.15V23.8H71.15ZM72.15 26.65H67.75V28.65H72.15V26.65ZM68.75 27.65V25.75H66.75V27.65H68.75ZM68.3747 24.9691C67.3079 24.1157 65.9096 23.75 64.3 23.75V25.75C65.6238 25.75 66.5254 26.051 67.1253 26.5309L68.3747 24.9691ZM64.3 23.75C62.7973 23.75 61.5023 24.2008 60.5954 25.2438L62.1046 26.5562C62.531 26.0658 63.2027 25.75 64.3 25.75V23.75ZM60.5954 25.2438C59.7161 26.255 59.35 27.6237 59.35 29.2H61.35C61.35 27.9096 61.6505 27.0784 62.1046 26.5562L60.5954 25.2438ZM59.35 29.2V31H61.35V29.2H59.35ZM60.35 32H67.55V30H60.35V32ZM66.55 31V34.65H68.55V31H66.55ZM67.55 33.65H60.35V35.65H67.55V33.65ZM59.35 34.65V49.45H61.35V34.65H59.35ZM59.35 49.45C59.35 50.2109 59.4952 50.9935 60.0026 51.5644L61.4974 50.2356C61.4715 50.2065 61.35 50.0225 61.35 49.45H59.35ZM60.0429 51.6071C60.5975 52.1617 61.4056 52.3 62.15 52.3V50.3C61.8776 50.3 61.6924 50.2721 61.5747 50.2385C61.4591 50.2054 61.4406 50.1764 61.4571 50.1929L60.0429 51.6071ZM62.15 52.3H63.35V50.3H62.15V52.3ZM62.35 51.3V55H64.35V51.3H62.35ZM63.35 54H51.9V56H63.35V54ZM52.9 55V51.3H50.9V55H52.9ZM71.8887 52.4L72.6226 51.7208L72.6226 51.7208L71.8887 52.4ZM71.8387 33.65L71.0997 32.9762L71.0992 32.9768L71.8387 33.65ZM90.2887 33.65L89.5443 34.3178L89.5495 34.3235L89.5547 34.3292L90.2887 33.65ZM90.2887 52.4L89.5547 51.7208L90.2887 52.4ZM86.4387 49.8L85.6561 49.1775L85.6561 49.1775L86.4387 49.8ZM86.4387 36.25L85.6493 36.864L85.6561 36.8725L86.4387 36.25ZM75.7387 36.25L74.9493 35.6361L74.9474 35.6386L75.7387 36.25ZM75.7387 49.8L74.9473 50.4115L74.9561 50.4225L75.7387 49.8ZM81.0887 54.75C77.2027 54.75 74.4424 53.6873 72.6226 51.7208L71.1547 53.0792C73.4683 55.5793 76.8413 56.75 81.0887 56.75V54.75ZM72.6226 51.7208C70.7752 49.7244 69.7887 46.8795 69.7887 43.05H67.7887C67.7887 47.2205 68.8688 50.609 71.1547 53.0792L72.6226 51.7208ZM69.7887 43.05C69.7887 39.1806 70.762 36.318 72.5781 34.3232L71.0992 32.9768C68.8487 35.4487 67.7887 38.8527 67.7887 43.05H69.7887ZM72.5776 34.3238C74.397 32.3284 77.1707 31.25 81.0887 31.25V29.25C76.8066 29.25 73.4137 30.4383 71.0997 32.9762L72.5776 34.3238ZM81.0887 31.25C85.0077 31.25 87.76 32.3287 89.5443 34.3178L91.0331 32.9822C88.7507 30.4379 85.3696 29.25 81.0887 29.25V31.25ZM89.5547 34.3292C91.4008 36.3242 92.3887 39.1846 92.3887 43.05H94.3887C94.3887 38.8487 93.3099 35.4425 91.0226 32.9708L89.5547 34.3292ZM92.3887 43.05C92.3887 46.8795 91.4022 49.7244 89.5547 51.7208L91.0226 53.0792C93.3085 50.609 94.3887 47.2205 94.3887 43.05H92.3887ZM89.5547 51.7208C87.7349 53.6873 84.9747 54.75 81.0887 54.75V56.75C85.336 56.75 88.7091 55.5793 91.0226 53.0792L89.5547 51.7208ZM81.0887 53C83.7003 53 85.8136 52.1921 87.2213 50.4225L85.6561 49.1775C84.7304 50.3412 83.277 51 81.0887 51V53ZM87.2213 50.4225C88.5925 48.6987 89.1887 46.1796 89.1887 43.05H87.1887C87.1887 45.987 86.6182 47.9679 85.6561 49.1775L87.2213 50.4225ZM89.1887 43.05C89.1887 39.8901 88.5937 37.3528 87.2213 35.6275L85.6561 36.8725C86.617 38.0806 87.1887 40.0765 87.1887 43.05H89.1887ZM87.228 35.6361C85.8232 33.8299 83.7082 33 81.0887 33V35C83.2692 35 84.7208 35.6701 85.6493 36.8639L87.228 35.6361ZM81.0887 33C78.4692 33 76.3541 33.8299 74.9493 35.6361L76.528 36.8639C77.4565 35.6701 78.9082 35 81.0887 35V33ZM74.9474 35.6386C73.6154 37.3623 73.0387 39.8947 73.0387 43.05H75.0387C75.0387 40.0719 75.5953 38.071 76.53 36.8614L74.9474 35.6386ZM73.0387 43.05C73.0387 46.175 73.6165 48.6891 74.9474 50.4114L76.53 49.1886C75.5942 47.9775 75.0387 45.9917 75.0387 43.05H73.0387ZM74.9561 50.4225C76.3637 52.1921 78.477 53 81.0887 53V51C78.9003 51 77.447 50.3412 76.5213 49.1775L74.9561 50.4225ZM96.6695 51.3V50.3H95.6695V51.3H96.6695ZM99.5195 50.85L98.8124 50.1429L98.7916 50.1637L98.7721 50.1856L99.5195 50.85ZM99.5195 26.1L98.7721 26.7644L98.8112 26.8083L98.8552 26.8474L99.5195 26.1ZM96.6695 25.65H95.6695V26.65H96.6695V25.65ZM96.6695 21.9V20.9H95.6695V21.9H96.6695ZM105.32 21.9H106.32V20.9H105.32V21.9ZM105.77 50.85L105.062 51.5571L105.062 51.5571L105.77 50.85ZM108.62 51.3H109.62V50.3H108.62V51.3ZM108.62 55V56H109.62V55H108.62ZM96.6695 55H95.6695V56H96.6695V55ZM96.6695 52.3H98.1195V50.3H96.6695V52.3ZM98.1195 52.3C98.8898 52.3 99.7162 52.134 100.267 51.5144L98.7721 50.1856C98.7813 50.1753 98.7642 50.2031 98.6635 50.2355C98.5575 50.2696 98.3837 50.3 98.1195 50.3V52.3ZM100.227 51.5571C100.797 50.9864 100.97 50.185 100.97 49.4H98.9695C98.9695 49.9484 98.8417 50.1136 98.8124 50.1429L100.227 51.5571ZM100.97 49.4V27.45H98.9695V49.4H100.97ZM100.97 27.45C100.97 26.6938 100.795 25.8954 100.184 25.3526L98.8552 26.8474C98.8557 26.8479 98.8609 26.8524 98.8695 26.8661C98.8786 26.8806 98.8931 26.9079 98.9083 26.9537C98.9401 27.0491 98.9695 27.2071 98.9695 27.45H100.97ZM100.267 25.4356C99.7162 24.816 98.8898 24.65 98.1195 24.65V26.65C98.3837 26.65 98.5575 26.6804 98.6635 26.7145C98.7642 26.7469 98.7813 26.7747 98.7721 26.7644L100.267 25.4356ZM98.1195 24.65H96.6695V26.65H98.1195V24.65ZM97.6695 25.65V21.9H95.6695V25.65H97.6695ZM96.6695 22.9H105.32V20.9H96.6695V22.9ZM104.32 21.9V49.45H106.32V21.9H104.32ZM104.32 49.45C104.32 50.2191 104.5 50.9945 105.062 51.5571L106.477 50.1429C106.439 50.1055 106.32 49.9475 106.32 49.45H104.32ZM105.062 51.5571C105.625 52.1197 106.4 52.3 107.17 52.3V50.3C106.672 50.3 106.514 50.1803 106.477 50.1429L105.062 51.5571ZM107.17 52.3H108.62V50.3H107.17V52.3ZM107.62 51.3V55H109.62V51.3H107.62ZM108.62 54H96.6695V56H108.62V54ZM97.6695 55V51.3H95.6695V55H97.6695ZM114.066 22.6V21.6H113.066V22.6H114.066ZM119.716 22.6H120.716V21.6H119.716V22.6ZM119.716 27.2V28.2H120.716V27.2H119.716ZM114.066 27.2H113.066V28.2H114.066V27.2ZM110.916 51.3V50.3H109.916V51.3H110.916ZM113.766 50.85L113.059 50.1429L113.038 50.1637L113.018 50.1856L113.766 50.85ZM113.766 35.2L113.018 35.8644L113.057 35.9083L113.101 35.9474L113.766 35.2ZM110.916 34.75H109.916V35.75H110.916V34.75ZM110.916 31V30H109.916V31H110.916ZM119.566 31H120.566V30H119.566V31ZM120.016 50.85L120.723 50.1429L120.016 50.85ZM122.866 51.3H123.866V50.3H122.866V51.3ZM122.866 55V56H123.866V55H122.866ZM110.916 55H109.916V56H110.916V55ZM114.066 23.6H119.716V21.6H114.066V23.6ZM118.716 22.6V27.2H120.716V22.6H118.716ZM119.716 26.2H114.066V28.2H119.716V26.2ZM115.066 27.2V22.6H113.066V27.2H115.066ZM110.916 52.3H112.366V50.3H110.916V52.3ZM112.366 52.3C113.136 52.3 113.962 52.134 114.513 51.5144L113.018 50.1856C113.027 50.1753 113.01 50.2031 112.91 50.2355C112.804 50.2696 112.63 50.3 112.366 50.3V52.3ZM114.473 51.5571C115.043 50.9864 115.216 50.185 115.216 49.4H113.216C113.216 49.9484 113.088 50.1136 113.059 50.1429L114.473 51.5571ZM115.216 49.4V36.55H113.216V49.4H115.216ZM115.216 36.55C115.216 35.7938 115.041 34.9954 114.43 34.4526L113.101 35.9474C113.102 35.9479 113.107 35.9524 113.116 35.9661C113.125 35.9806 113.139 36.0079 113.154 36.0537C113.186 36.1491 113.216 36.3071 113.216 36.55H115.216ZM114.513 34.5356C113.962 33.916 113.136 33.75 112.366 33.75V35.75C112.63 35.75 112.804 35.7804 112.91 35.8145C113.01 35.8469 113.027 35.8747 113.018 35.8644L114.513 34.5356ZM112.366 33.75H110.916V35.75H112.366V33.75ZM111.916 34.75V31H109.916V34.75H111.916ZM110.916 32H119.566V30H110.916V32ZM118.566 31V49.45H120.566V31H118.566ZM118.566 49.45C118.566 50.2191 118.746 50.9945 119.309 51.5571L120.723 50.1429C120.685 50.1055 120.566 49.9475 120.566 49.45H118.566ZM119.309 51.5571C119.871 52.1197 120.646 52.3 121.416 52.3V50.3C120.918 50.3 120.76 50.1803 120.723 50.1429L119.309 51.5571ZM121.416 52.3H122.866V50.3H121.416V52.3ZM121.866 51.3V55H123.866V51.3H121.866ZM122.866 54H110.916V56H122.866V54ZM111.916 55V51.3H109.916V55H111.916ZM128.773 52.4L129.507 51.7208L129.507 51.7208L128.773 52.4ZM128.723 33.65L127.984 32.9762L127.984 32.9768L128.723 33.65ZM147.173 33.65L146.429 34.3178L146.434 34.3235L146.439 34.3292L147.173 33.65ZM147.173 52.4L146.439 51.7208L147.173 52.4ZM143.323 49.8L142.541 49.1775L142.541 49.1775L143.323 49.8ZM143.323 36.25L142.534 36.864L142.541 36.8725L143.323 36.25ZM132.623 36.25L131.834 35.6361L131.832 35.6386L132.623 36.25ZM132.623 49.8L131.832 50.4115L131.841 50.4225L132.623 49.8ZM137.973 54.75C134.087 54.75 131.327 53.6873 129.507 51.7208L128.039 53.0792C130.353 55.5793 133.726 56.75 137.973 56.75V54.75ZM129.507 51.7208C127.66 49.7244 126.673 46.8795 126.673 43.05H124.673C124.673 47.2205 125.754 50.609 128.039 53.0792L129.507 51.7208ZM126.673 43.05C126.673 39.1806 127.647 36.318 129.463 34.3232L127.984 32.9768C125.733 35.4487 124.673 38.8527 124.673 43.05H126.673ZM129.462 34.3238C131.282 32.3284 134.055 31.25 137.973 31.25V29.25C133.691 29.25 130.298 30.4383 127.984 32.9762L129.462 34.3238ZM137.973 31.25C141.892 31.25 144.645 32.3287 146.429 34.3178L147.918 32.9822C145.635 30.4379 142.254 29.25 137.973 29.25V31.25ZM146.439 34.3292C148.286 36.3242 149.273 39.1846 149.273 43.05H151.273C151.273 38.8487 150.195 35.4425 147.907 32.9708L146.439 34.3292ZM149.273 43.05C149.273 46.8795 148.287 49.7244 146.439 51.7208L147.907 53.0792C150.193 50.609 151.273 47.2205 151.273 43.05H149.273ZM146.439 51.7208C144.62 53.6873 141.859 54.75 137.973 54.75V56.75C142.221 56.75 145.594 55.5793 147.907 53.0792L146.439 51.7208ZM137.973 53C140.585 53 142.698 52.1921 144.106 50.4225L142.541 49.1775C141.615 50.3412 140.162 51 137.973 51V53ZM144.106 50.4225C145.477 48.6987 146.073 46.1796 146.073 43.05H144.073C144.073 45.987 143.503 47.9679 142.541 49.1775L144.106 50.4225ZM146.073 43.05C146.073 39.8901 145.478 37.3528 144.106 35.6275L142.541 36.8725C143.502 38.0806 144.073 40.0765 144.073 43.05H146.073ZM144.113 35.6361C142.708 33.8299 140.593 33 137.973 33V35C140.154 35 141.606 35.6701 142.534 36.8639L144.113 35.6361ZM137.973 33C135.354 33 133.239 33.8299 131.834 35.6361L133.413 36.8639C134.341 35.6701 135.793 35 137.973 35V33ZM131.832 35.6386C130.5 37.3623 129.923 39.8947 129.923 43.05H131.923C131.923 40.0719 132.48 38.071 133.415 36.8614L131.832 35.6386ZM129.923 43.05C129.923 46.175 130.501 48.6891 131.832 50.4114L133.415 49.1886C132.479 47.9775 131.923 45.9917 131.923 43.05H129.923ZM131.841 50.4225C133.248 52.1921 135.362 53 137.973 53V51C135.785 51 134.332 50.3412 133.406 49.1775L131.841 50.4225Z" fill="black"/>
</svg>
