<svg width="162" height="157" viewBox="0 0 162 157" fill="none"
  xmlns="http://www.w3.org/2000/svg">
  <path d="M80 122C72.9439 115.375 66 111.5 65 99.5V61C65 57.6863 67.6863 55 71 55H112C115.314 55 118 57.6863 118 61V69" stroke="#51525D" stroke-width="10"/>
  <path d="M157 100.5L151 90C151 90 139.829 92.6428 134.5 89C129.454 85.5507 127.5 75 127.5 75H115C114.221 81.6896 112 86.5 107.5 90C103 93.5 91.5 90 91.5 90L85.5 100.5C85.5 100.5 93.968 108.55 93.5 115C93.045 121.271 84 128 84 128L91.5 139.5C91.5 139.5 102.148 136.275 107.5 139.5C112.666 142.612 115 153 115 153H127.5C128.535 146.453 130.5 142 134.5 139.5C138.5 137 145.221 136.946 151 139.5L157 128C152.271 123.575 150.542 120.759 149.5 115C149.646 109.852 151.44 106.651 157 100.5Z" stroke="#51525D" stroke-width="7"/>
  <circle cx="121.5" cy="114.5" r="8" stroke="#51525D" stroke-width="7"/>
  <circle cx="91" cy="21" r="16" stroke="#51525D" stroke-width="10"/>
  <circle cx="30" cy="21" r="16" stroke="#51525D" stroke-width="10"/>
  <path d="M55.5 56H11C7.68629 56 5 58.6863 5 62V100.309C5 100.436 5.00356 100.557 5.01307 100.684C5.13105 102.257 6.09961 113.535 10 119.5C14.8303 126.887 27.6828 131.52 32.3102 132.991C33.4088 133.341 34.5794 133.319 35.6613 132.921C39.9487 131.343 51.3403 126.606 55.5 119.5" stroke="#51525D" stroke-width="10"/>
</svg>
